#!OML:ASF Y:\EmotionMaleHayes\Project 1\Capture day 1\Session 1\Male1.ASF
:FULLY-SPECIFIED
:DEGREES
288
root -30.3182 16.4191 -1.99672 195.092 60.3369 194.125
lowerback 11.9212 2.77327 4.46963
upperback 3.33539 4.39726 0.137794
thorax -2.85059 2.25446 -2.98047
lowerneck -18.9814 -4.31722 -3.17881
upperneck 27.6985 -5.0752 1.79696
head 12.47 -2.12465 0.447786
rclavicle 2.76311e-014 -2.90226e-014
rhumerus -23.1875 19.5728 -89.5521
rradius 50.8483
rwrist -4.69854
rhand -10.0201 -32.2112
rfingers 7.12502
rthumb 15.9643 -61.5733
lclavicle 2.76311e-014 -2.90226e-014
lhumerus -41.1534 18.2102 66.8131
lradius 17.349
lwrist -22.3972
lhand -17.481 -27.1364
lfingers 7.12502
lthumb 8.77124 2.66131
rfemur 15.2387 -9.88374 13.8926
rtibia 3.50406
rfoot -24.3715 -26.3096
rtoes 14.8388
lfemur -15.67 10.4551 9.14374
ltibia 18.5888
lfoot -10.7123 11.5147
ltoes -7.64884
289
root -30.3003 16.3981 -2.11775 194.871 60.0811 193.764
lowerback 11.8613 2.80339 4.26492
upperback 3.40792 4.40849 0.0631014
thorax -2.75089 2.26591 -2.93847
lowerneck -18.8621 -4.66438 -3.63082
upperneck 27.5537 -5.52404 2.09266
head 12.4279 -2.33735 0.563239
rclavicle -5.93372e-014 -1.11319e-014
rhumerus -23.213 19.43 -89.3304
rradius 50.7299
rwrist -4.93666
rhand -10.4111 -31.9117
rfingers 7.12502
rthumb 15.5877 -61.3036
lclavicle -5.93372e-014 -1.11319e-014
lhumerus -40.6585 18.6911 66.5787
lradius 17.1254
lwrist -23.1541
lhand -17.3647 -27.3615
lfingers 7.12502
lthumb 8.8834 2.43151
rfemur 15.3763 -9.50196 13.563
rtibia 3.55516
rfoot -24.2974 -26.8528
rtoes 14.6533
lfemur -16.2162 10.8693 8.63054
ltibia 19.4339
lfoot -9.92563 10.986
ltoes -9.44274
290
root -30.2806 16.3784 -2.23924 193.885 59.9488 192.582
lowerback 12.0262 2.91207 3.48622
upperback 3.42496 4.46397 -0.0376572
thorax -2.87107 2.29227 -2.62726
lowerneck -18.5465 -4.97731 -4.004
upperneck 27.2593 -5.9249 2.29123
head 12.282 -2.53801 0.640851
rclavicle 1.90833e-014 -7.95139e-016
rhumerus -23.4298 18.996 -89.0389
rradius 50.5771
rwrist -4.9765
rhand -10.7688 -31.6973
rfingers 7.12502
rthumb 15.2432 -61.1157
lclavicle 1.90833e-014 -7.95139e-016
lhumerus -40.2155 18.5484 66.8723
lradius 17.046
lwrist -23.1734
lhand -17.3447 -27.5379
lfingers 7.12502
lthumb 8.90277 2.25424
rfemur 15.6103 -9.07367 12.6845
rtibia 3.62766
rfoot -24.4729 -27.2655
rtoes 15.8284
lfemur -16.7467 11.0283 7.61848
ltibia 20.2762
lfoot -9.6336 10.0321
ltoes -12.4664
291
root -30.2592 16.3581 -2.36454 192.569 59.8547 190.927
lowerback 11.9932 2.99141 2.53618
upperback 3.49094 4.44718 -0.263445
thorax -2.83995 2.28813 -2.32531
lowerneck -18.6545 -5.1599 -3.98408
upperneck 27.1327 -6.18281 2.23348
head 12.2602 -2.66374 0.570314
rclavicle -7.37491e-014 3.97569e-015
rhumerus -23.5962 18.5821 -88.8403
rradius 50.4618
rwrist -4.8334
rhand -11.1072 -31.2214
rfingers 7.12502
rthumb 14.9172 -60.6642
lclavicle -7.37491e-014 3.97569e-015
lhumerus -39.6335 18.412 67.1576
lradius 16.9492
lwrist -22.9523
lhand -17.5556 -27.2699
lfingers 7.12502
lthumb 8.69917 2.53089
rfemur 15.74 -8.88732 11.3873
rtibia 3.8071
rfoot -24.5061 -27.6791
rtoes 15.8432
lfemur -17.4361 11.3064 6.23791
ltibia 21.3518
lfoot -9.80112 9.06385
ltoes -11.9415
292
root -30.2418 16.3409 -2.4903 191.859 59.7808 189.946
lowerback 11.9177 3.06629 2.05757
upperback 3.56095 4.4814 -0.540712
thorax -2.73783 2.31069 -2.3425
lowerneck -18.753 -5.36667 -3.99701
upperneck 27.0114 -6.54021 2.42372
head 12.2535 -2.80345 0.582268
rclavicle -8.07066e-014 -1.15295e-014
rhumerus -23.7978 18.0381 -88.8325
rradius 50.3603
rwrist -4.53172
rhand -11.3309 -30.7285
rfingers 7.12502
rthumb 14.7018 -60.1872
lclavicle -8.07066e-014 -1.15295e-014
lhumerus -38.8775 18.4026 67.1751
lradius 16.7859
lwrist -22.942
lhand -17.9948 -26.8764
lfingers 7.12502
lthumb 8.27535 2.94156
rfemur 15.7228 -8.38521 10.6388
rtibia 4.04944
rfoot -24.9005 -28.2924
rtoes 16.5515
lfemur -18.1808 11.9567 5.21946
ltibia 22.7095
lfoot -10.0742 8.17928
ltoes -12.3834
293
root -30.2242 16.327 -2.61548 191.648 59.7045 189.653
lowerback 12.2009 3.21497 1.72718
upperback 3.44852 4.63878 -0.606661
thorax -3.02173 2.38187 -2.27307
lowerneck -18.4393 -5.67324 -4.32411
upperneck 26.8849 -6.97234 2.73231
head 12.1848 -2.99307 0.68904
rclavicle 1.49089e-014 5.1684e-015
rhumerus -24.4662 17.6231 -88.7305
rradius 50.3198
rwrist -4.49487
rhand -11.2564 -30.721
rfingers 7.12502
rthumb 14.7734 -60.1745
lclavicle 1.49089e-014 5.1684e-015
lhumerus -38.4499 18.3137 67.2623
lradius 16.7135
lwrist -23.0536
lhand -18.6242 -26.6952
lfingers 7.12502
lthumb 7.66793 3.14583
rfemur 15.8435 -7.82103 10.2992
rtibia 4.16306
rfoot -25.6082 -28.7574
rtoes 18.7438
lfemur -18.7682 12.4318 4.64628
ltibia 24.0772
lfoot -10.0077 7.51112
ltoes -15.7409
294
root -30.2051 16.3087 -2.75177 190.972 59.3476 188.862
lowerback 12.2759 3.22119 1.35822
upperback 3.47704 4.60286 -0.715831
thorax -3.05429 2.36648 -2.18008
lowerneck -18.3318 -5.92155 -4.63106
upperneck 26.8167 -7.30147 2.95886
head 12.1748 -3.14416 0.772852
rclavicle 1.21259e-014 -1.31198e-014
rhumerus -25.0512 17.6248 -88.5376
rradius 50.4436
rwrist -4.90738
rhand -11.294 -31.0323
rfingers 7.12502
rthumb 14.7372 -60.4884
lclavicle 1.21259e-014 -1.31198e-014
lhumerus -37.8694 17.8178 67.7441
lradius 16.7757
lwrist -22.5498
lhand -19.1218 -26.4271
lfingers 7.12502
lthumb 7.18755 3.43083
rfemur 16.1591 -7.88874 9.44779
rtibia 4.29941
rfoot -25.6789 -29.1364
rtoes 19.2448
lfemur -19.4195 12.2509 3.7247
ltibia 25.3145
lfoot -10.1405 7.0044
ltoes -16.5417
295
root -30.1816 16.2908 -2.88612 190.002 59.1152 187.753
lowerback 12.3421 3.30446 0.816785
upperback 3.56408 4.64885 -0.917657
thorax -3.02286 2.39571 -2.09544
lowerneck -18.2916 -6.24266 -4.96464
upperneck 26.7603 -7.77087 3.33189
head 12.2005 -3.34029 0.89028
rclavicle -4.17448e-015 6.75868e-015
rhumerus -25.5428 17.2532 -88.3127
rradius 50.6057
rwrist -5.3153
rhand -11.2433 -31.2854
rfingers 7.12502
rthumb 14.7861 -60.7379
lclavicle -4.17448e-015 6.75868e-015
lhumerus -37.0478 17.1634 68.3148
lradius 16.8286
lwrist -21.9171
lhand -19.2002 -26.1444
lfingers 7.12502
lthumb 7.11193 3.71607
rfemur 16.4225 -7.75287 8.4687
rtibia 4.52533
rfoot -25.2275 -29.7979
rtoes 18.8356
lfemur -19.855 12.1437 2.61646
ltibia 26.3676
lfoot -10.6292 6.68058
ltoes -15.854
296
root -30.1536 16.2785 -3.02145 189.27 58.9414 186.93
lowerback 12.5241 3.41156 0.301447
upperback 3.56354 4.72674 -1.04664
thorax -3.14926 2.43597 -1.96715
lowerneck -18.1594 -6.58745 -5.28839
upperneck 26.7128 -8.27333 3.6873
head 12.2155 -3.55246 0.996063
rclavicle 5.96354e-015 -3.18055e-015
rhumerus -26.1604 16.6653 -88.0872
rradius 50.6919
rwrist -5.5696
rhand -10.9843 -31.5246
rfingers 7.12502
rthumb 15.0356 -60.9586
lclavicle 5.96354e-015 -3.18055e-015
lhumerus -36.4253 16.658 68.7807
lradius 17.0152
lwrist -21.3577
lhand -19.0547 -25.9636
lfingers 7.12502
lthumb 7.25231 3.89209
rfemur 16.6118 -7.22941 7.81527
rtibia 4.78331
rfoot -25.3465 -30.4356
rtoes 20.1696
lfemur -20.0587 12.1541 1.71931
ltibia 27.1702
lfoot -11.1611 6.52518
ltoes -15.5364
297
root -30.1256 16.2687 -3.16153 188.764 58.747 186.366
lowerback 12.3251 3.46192 -0.082507
upperback 3.78 4.76104 -1.11228
thorax -2.83886 2.46377 -1.80217
lowerneck -18.1235 -6.84149 -5.40878
upperneck 26.4606 -8.64452 3.8124
head 12.142 -3.72437 1.00063
rclavicle -6.99722e-014 7.95139e-016
rhumerus -26.5623 16.4047 -87.8065
rradius 50.914
rwrist -5.69971
rhand -11.1928 -31.7146
rfingers 7.12502
rthumb 14.8347 -61.1636
lclavicle -6.99722e-014 7.95139e-016
lhumerus -35.5838 16.2872 69.3719
lradius 17.2261
lwrist -20.7615
lhand -19.0723 -25.9388
lfingers 7.12502
lthumb 7.23532 3.91753
rfemur 16.7124 -6.74106 7.30433
rtibia 5.2253
rfoot -25.9552 -30.8505
rtoes 21.4967
lfemur -20.1559 12.2023 1.0091
ltibia 27.7658
lfoot -11.1613 6.22722
ltoes -15.7899
298
root -30.0996 16.2588 -3.30584 188.16 58.6204 185.689
lowerback 12.5069 3.55058 -0.385905
upperback 3.72443 4.83517 -1.26609
thorax -3.00442 2.50026 -1.8199
lowerneck -18.0151 -7.159 -5.55318
upperneck 26.5104 -9.07857 3.88578
head 12.1762 -3.92213 0.98164
rclavicle -6.55989e-015 -7.95139e-015
rhumerus -27.4815 16.0978 -87.7596
rradius 51.1759
rwrist -5.76707
rhand -11.7466 -31.8313
rfingers 7.12502
rthumb 14.3012 -61.3188
lclavicle -6.55989e-015 -7.95139e-015
lhumerus -35.064 15.2114 70.0615
lradius 17.5109
lwrist -19.7562
lhand -19.15 -25.9296
lfingers 7.12502
lthumb 7.1604 3.92927
rfemur 16.7333 -6.59893 6.49391
rtibia 5.83172
rfoot -25.8924 -31.1792
rtoes 21.7313
lfemur -20.1763 12.328 0.205331
ltibia 28.2986
lfoot -10.856 6.21869
ltoes -19.5561
299
root -30.0695 16.25 -3.46008 187.395 58.6158 184.823
lowerback 12.4821 3.65399 -0.700159
upperback 3.78863 4.93635 -1.46203
thorax -2.92929 2.55576 -1.85835
lowerneck -18.0493 -7.47882 -5.8746
upperneck 26.5603 -9.51861 4.15528
head 12.2632 -4.11334 1.05774
rclavicle -2.44505e-014 2.22639e-014
rhumerus -28.1014 15.9741 -87.6957
rradius 51.0185
rwrist -6.25183
rhand -12.2835 -31.8219
rfingers 7.12502
rthumb 13.7838 -61.3453
lclavicle -2.44505e-014 2.22639e-014
lhumerus -34.3138 13.9963 70.9265
lradius 17.7847
lwrist -18.3593
lhand -19.1679 -25.6947
lfingers 7.12502
lthumb 7.14304 4.16475
rfemur 16.7012 -6.53108 5.44758
rtibia 6.56223
rfoot -25.5522 -31.3769
rtoes 22.9281
lfemur -20.0346 12.4587 -0.751422
ltibia 28.7361
lfoot -10.9765 6.40308
ltoes -22.3637
300
root -30.0418 16.2348 -3.60677 186.656 58.3135 183.778
lowerback 12.3104 3.62259 -1.04736
upperback 3.85769 4.85857 -1.69242
thorax -2.77318 2.52302 -1.87676
lowerneck -18.1158 -7.70331 -6.1862
upperneck 26.4458 -9.86032 4.53753
head 12.295 -4.25052 1.18932
rclavicle -2.42517e-014 4.77083e-015
rhumerus -28.8386 15.7607 -87.692
rradius 51.2829
rwrist -6.85051
rhand -12.5272 -32.1182
rfingers 7.12502
rthumb 13.5489 -61.6574
lclavicle -2.42517e-014 4.77083e-015
lhumerus -33.406 13.3384 71.5484
lradius 17.9375
lwrist -17.3344
lhand -19.4945 -25.961
lfingers 7.12502
lthumb 6.82778 3.90889
rfemur 16.6078 -6.28989 4.60153
rtibia 7.25484
rfoot -25.7779 -31.8403
rtoes 25.1519
lfemur -20.2937 12.498 -1.86123
ltibia 29.3225
lfoot -11.7268 5.70678
ltoes -19.7719
301
root -30.0104 16.2202 -3.76139 185.864 58.0673 182.695
lowerback 12.0811 3.64668 -1.51981
upperback 3.82725 4.8354 -1.83079
thorax -2.7064 2.51209 -1.73889
lowerneck -17.7745 -7.9383 -6.5105
upperneck 26.2714 -10.1746 4.76974
head 12.2133 -4.40299 1.28588
rclavicle 1.39149e-015 -2.62396e-014
rhumerus -29.7333 15.5511 -87.6038
rradius 51.387
rwrist -7.16215
rhand -12.3625 -32.312
rfingers 7.12502
rthumb 13.7077 -61.8405
lclavicle 1.39149e-015 -2.62396e-014
lhumerus -32.8993 12.3971 72.33
lradius 18.3501
lwrist -16.1902
lhand -19.9861 -26.2243
lfingers 7.12502
lthumb 6.35319 3.66043
rfemur 16.5052 -5.83815 3.77168
rtibia 8.04761
rfoot -26.1563 -32.2034
rtoes 27.7897
lfemur -20.3915 12.561 -3.05314
ltibia 29.8027
lfoot -12.616 5.42589
ltoes -17.9136
